# xmcd
#
# Track frame offsets:
#	150
#	15375
#	37837
#	52987
#	64762
#	81562
#	96375
#	117075
#	134737
#	146737
#	166912
#	182550
#	193762
#	207750
#	223537
#	240487
#	262762
#	278737
#
# Disc length: 3873 seconds
# Revision: 0
# Processed by: cddbd v1.5.2PL0 Copyright (c) Steve Scherf et al.
# Submitted via: dBpowerAMP V12.0
#
DISCID=fd0f1f12
DTITLE=Various Artist - Louisiana Spice: 25 Years of Louisiana Music on Rounder Records, Disc 2 of 2
DYEAR=1989
DGENRE=Blues
TTITLE0=The Balfa Brothers - J'ai vu le loup, le renard et la belette
TTITLE1=John Delafose and The Eunice Playboys - Pere et garçon zydeco
TTITLE2=Eddie LeJeune - The Mistake I Made [LeJeune 1988]
TTITLE3=Jimmy C. Newman and Cajun Country - Chere toute-toute
TTITLE4=Boozoo Chavis and The Majic Sounds - Lula Lula Don't You Go To Bingo [Chavis 1993]
TTITLE5=Le Trio Cadien - Bayou Pon Pon
TTITLE6=Beausoleil - Les flammes d'enfer
TTITLE7=Steve Riley and The Mamou Playboys - La Danse de Mardi Gras
TTITLE8=D.L. Menard - Wildwood Flower
TTITLE9=Jo-El Sonnier - La valse de chere bébé [Sonnier 1994]
TTITLE10=Geno Delafose - C'est pas la peine brailler (There's No Need to Cry) [Delafose 1994]
TTITLE11=Bruce Daigrepont - Laissez faire [Daigrepont 1987]
TTITLE12=David Doucet - T'en as eu
TTITLE13=Zachary Richard - Filé Gumbo [Richard 1988]
TTITLE14=Nathan and the Zydeco Cha Chas - Outside People [Williams 1991]
TTITLE15=Beau Jocque and the Zydeco Hi-Rollers - Give Him Cornbread [Jocque 1993]
TTITLE16=Buckwheat Zydeco - Think It Over One More Time [Dural 1985]
TTITLE17=L'il Brian and the Zydeco Travelers - Snap Bean
EXTD=
EXTT0=
EXTT1=
EXTT2=
EXTT3=
EXTT4=
EXTT5=
EXTT6=
EXTT7=
EXTT8=
EXTT9=
EXTT10=
EXTT11=
EXTT12=
EXTT13=
EXTT14=
EXTT15=
EXTT16=
EXTT17=
PLAYORDER=
